<svg width="40" height="31" viewBox="0 0 40 31" fill="none" xmlns="http://www.w3.org/2000/svg">
<path d="M35.0933 10.6114C34.3628 7.84949 32 6.72177 30.1018 8.40877C28.7834 7.35275 26.6747 7.35275 25.3561 8.40877C23.4528 6.71975 21.0947 7.85373 20.3651 10.6116C20.1308 11.4037 20.0408 12.6414 21.0021 13.0249C22.4918 13.6185 23.1741 11.9937 23.1741 11.9937C23.0056 14.1703 24.1698 14.8488 24.1698 15.5274V16.3184C24.1698 17.3071 25.3561 17.9004 26.1471 17.9004C26.9382 17.9004 27.4325 17.505 27.7292 17.1094C28.0258 17.5048 28.5202 17.9004 29.3112 17.9004C30.1022 17.9004 31.2886 17.3071 31.2886 16.3184V15.5274C31.2886 14.8488 32.4529 14.1703 32.2844 11.9934C33.0085 13.8273 35.9659 13.5581 35.0934 10.6115L35.0933 10.6114ZM25.7516 13.1544C25.3148 13.1544 24.9606 12.8003 24.9606 12.3634C24.9606 11.9266 25.3146 11.5724 25.7516 11.5724C26.1884 11.5724 26.5426 11.9264 26.5426 12.3634C26.5426 12.8003 26.1884 13.1544 25.7516 13.1544ZM28.801 14.6074L28.0032 15.4052C27.8519 15.5566 27.6062 15.5566 27.4548 15.4052L26.657 14.6074C26.4126 14.363 26.5855 13.9454 26.9312 13.9454H28.5272C28.8726 13.9454 29.0454 14.363 28.801 14.6074ZM29.7064 13.1544C29.2696 13.1544 28.9154 12.8003 28.9154 12.3634C28.9154 11.9266 29.2694 11.5724 29.7064 11.5724C30.1431 11.5724 30.4974 11.9264 30.4974 12.3634C30.4974 12.8003 30.1432 13.1544 29.7064 13.1544Z" fill="white"/>
<path d="M14.1589 8.76578C14.409 8.76546 14.6349 8.61479 14.7306 8.38325C14.8266 8.15202 14.7736 7.88574 14.5963 7.70885L14.403 7.51554V7.51522C14.1614 7.27357 13.7694 7.27357 13.5274 7.51522C13.2858 7.75718 13.2858 8.14918 13.5274 8.39082L13.7207 8.58414C13.837 8.70038 13.9946 8.76578 14.1589 8.76578Z" fill="white"/>
<path d="M11.5939 9.44692C11.4777 9.56317 11.4126 9.72047 11.4126 9.88473C11.4126 10.049 11.4777 10.2066 11.5939 10.3225L11.7872 10.5159C12.0292 10.7578 12.4212 10.7578 12.6628 10.5159C12.9048 10.2742 12.9048 9.88221 12.6628 9.64025L12.4695 9.44694C12.3533 9.3307 12.196 9.26562 12.0317 9.26562C11.8674 9.26562 11.7098 9.331 11.5939 9.44692Z" fill="white"/>
<path d="M16.0897 6.83211C16.3402 6.83211 16.566 6.68112 16.6618 6.4499C16.7578 6.21836 16.7047 5.95208 16.5275 5.77486L16.3342 5.58155V5.58186C16.0925 5.3399 15.7005 5.3399 15.4586 5.58186C15.2169 5.82351 15.2169 6.21551 15.4586 6.45747L15.6519 6.65078C15.7678 6.76702 15.9254 6.83211 16.0897 6.83211Z" fill="white"/>
<path d="M15.8443 10.7091C16.0859 10.9511 16.4779 10.9511 16.7199 10.7091C16.9615 10.4675 16.9615 10.0755 16.7199 9.83354L16.5266 9.64022C16.2846 9.39857 15.8926 9.39857 15.651 9.64022C15.409 9.88218 15.409 10.2742 15.651 10.5158L15.8443 10.7091Z" fill="white"/>
<path d="M13.9131 12.6427C14.1548 12.8847 14.5468 12.8847 14.7887 12.6427C15.0304 12.4011 15.0304 12.0091 14.7887 11.7671L14.5954 11.5738C14.3534 11.3322 13.9614 11.3322 13.7198 11.5738C13.4778 11.8158 13.4778 12.2078 13.7198 12.4494L13.9131 12.6427Z" fill="white"/>
<path d="M17.7803 8.77773C18.0223 9.01938 18.4143 9.01938 18.6559 8.77773C18.8979 8.53577 18.8979 8.14377 18.6559 7.90213L18.4626 7.70882C18.2206 7.46685 17.8286 7.46685 17.587 7.70882C17.345 7.95046 17.345 8.34246 17.587 8.58442L17.7803 8.77773Z" fill="white"/>
<path d="M39.1812 17.1572H4.42227V3.27433C4.4229 2.73512 4.63739 2.21807 5.01865 1.8368C5.40023 1.45521 5.9173 1.24074 6.4565 1.2401C6.85167 1.24074 7.23546 1.37403 7.54656 1.6179C7.85739 1.86207 8.07787 2.20322 8.17232 2.58698C7.38925 3.46355 6.97131 4.60641 7.00358 5.78146C7.03611 6.95618 7.51657 8.07438 8.34666 8.90648L8.65938 9.2192C8.77562 9.33544 8.93293 9.40051 9.09719 9.40051C9.26145 9.40051 9.41876 9.33544 9.535 9.2192L15.1636 3.59061C15.2795 3.47468 15.3449 3.31706 15.3449 3.1528C15.3449 2.98854 15.2795 2.83123 15.1636 2.71499L14.8509 2.40227V2.40258C14.1183 1.67006 13.1603 1.20635 12.1315 1.08635C11.1026 0.966314 10.0634 1.19691 9.18177 1.74085C8.94012 1.22186 8.55506 0.782444 8.07238 0.474511C7.58972 0.166529 7.02907 0.00259196 6.45638 0.00195312C5.5887 0.00290078 4.75693 0.348152 4.14349 0.961575C3.53006 1.57501 3.18484 2.40671 3.18387 3.27447V17.1573H1.14963C0.807852 17.1573 0.530518 17.4347 0.530518 17.7764C0.530518 18.1182 0.80786 18.3956 1.14963 18.3956H4.42215V23.9711C4.42436 25.6825 5.10539 27.3232 6.31584 28.533C7.5263 29.7428 9.16729 30.4229 10.8787 30.4242H29.4525C31.164 30.4229 32.8049 29.7428 34.0154 28.533C35.2259 27.3232 35.9069 25.6825 35.9091 23.9711V18.3956H39.1816C39.5234 18.3956 39.8007 18.1182 39.8007 17.7764C39.8007 17.4347 39.5234 17.1573 39.1816 17.1573L39.1812 17.1572Z" fill="white"/>
</svg>
