<svg width="22" height="34" viewBox="0 0 22 34" fill="none" xmlns="http://www.w3.org/2000/svg">
<path d="M7.45981 0.427734H14.5355C15.1525 0.427734 15.6528 1.04468 15.6528 1.54502V4.71059C15.6528 5.32754 15.1525 5.82787 14.5355 5.82787H7.45981C6.84286 5.82787 6.34253 5.21092 6.34253 4.71059V1.54502C6.34253 0.928067 6.84284 0.427734 7.45981 0.427734Z" fill="white"/>
<path d="M12.7008 8.0625H9.28955C4.29188 8.0625 0.195557 11.943 0.195557 16.7136V32.5109C0.20335 32.7997 0.32518 33.0735 0.534558 33.2725C0.744189 33.4715 1.02397 33.5793 1.31255 33.5723H20.6776C20.9662 33.5793 21.246 33.4715 21.4556 33.2725C21.665 33.0735 21.7868 32.7997 21.7946 32.5109V16.7136C21.7946 11.9432 17.6983 8.0625 12.7006 8.0625H12.7008ZM13.9745 22.0576H12.1124V23.8303C12.1124 24.2295 11.8994 24.5984 11.5537 24.7979C11.2082 24.9974 10.7821 24.9974 10.4367 24.7979C10.0909 24.5984 9.87791 24.2295 9.87791 23.8303V22.0576H8.01589C7.72313 22.075 7.43608 21.9708 7.22253 21.7695C7.009 21.5682 6.88795 21.2879 6.88795 20.9944C6.88795 20.7011 7.009 20.4206 7.22253 20.2195C7.43606 20.0182 7.7231 19.914 8.01589 19.9312H9.87791V18.1585C9.87791 17.7595 10.0909 17.3906 10.4367 17.1911C10.7822 16.9916 11.2082 16.9916 11.5537 17.1911C11.8994 17.3906 12.1124 17.7595 12.1124 18.1585V19.9312H13.9745C14.2672 19.914 14.5543 20.0182 14.7678 20.2195C14.9814 20.4206 15.1024 20.7011 15.1024 20.9944C15.1024 21.2879 14.9814 21.5682 14.7678 21.7695C14.5543 21.9708 14.2673 22.075 13.9745 22.0576Z" fill="white"/>
</svg>
