<svg width="41" height="40" viewBox="0 0 41 40" fill="none" xmlns="http://www.w3.org/2000/svg">
<path fill-rule="evenodd" clip-rule="evenodd" d="M5.55816 7.83281C3.79691 9.64531 2.80566 12.1016 2.80566 14.6628C2.80566 17.2253 3.79691 19.6816 5.55816 21.4928L17.5894 33.8666C18.2994 34.5966 19.2632 35.0041 20.2682 35.0041C21.2719 35.0041 22.2369 34.5966 22.9469 33.8666C25.1257 31.6253 34.9682 21.4828 34.9682 21.4828C36.7294 19.6716 37.7207 17.2153 37.7207 14.6528C37.7207 12.0903 36.7294 9.63531 34.9682 7.82281C33.1944 5.99906 30.7869 4.97656 28.2782 4.97656C25.7694 4.97656 23.3632 5.99906 21.5894 7.82281L20.2582 9.19156L18.9369 7.83281C17.1632 6.00906 14.7569 4.98656 12.2482 4.98656C9.73941 4.98656 7.33191 6.00906 5.55816 7.83281ZM7.35066 9.57656C8.64941 8.24031 10.4107 7.48656 12.2482 7.48656C14.0857 7.48656 15.8457 8.24031 17.1444 9.57656L19.3619 11.8566C19.5969 12.0978 19.9207 12.2353 20.2582 12.2353C20.5957 12.2353 20.9194 12.0978 21.1544 11.8566L23.3819 9.56531C24.6807 8.23031 26.4407 7.47656 28.2782 7.47656C30.1157 7.47656 31.8757 8.23031 33.1757 9.56531C33.1794 9.57031 33.1832 9.57406 33.1882 9.57906C34.4869 10.9153 35.2207 12.7453 35.2207 14.6528C35.2207 16.5603 34.4869 18.3916 33.1757 19.7403C33.1757 19.7403 23.3332 29.8828 21.1544 32.1241C20.9194 32.3653 20.6007 32.5041 20.2682 32.5041C19.9357 32.5041 19.6169 32.3653 19.3819 32.1241L7.35066 19.7503C6.03941 18.4016 5.30566 16.5703 5.30566 14.6628C5.30566 12.7553 6.03941 10.9253 7.35066 9.57656Z" fill="white"/>
<path fill-rule="evenodd" clip-rule="evenodd" d="M19.0133 18.7541H16.5171C15.8271 18.7541 15.2671 19.3141 15.2671 20.0041C15.2671 20.6941 15.8271 21.2541 16.5171 21.2541H19.0133V23.7503C19.0133 24.4403 19.5733 25.0003 20.2633 25.0003C20.9533 25.0003 21.5133 24.4403 21.5133 23.7503V21.2541H24.0096C24.6996 21.2541 25.2596 20.6941 25.2596 20.0041C25.2596 19.3141 24.6996 18.7541 24.0096 18.7541H21.5133V16.2578C21.5133 15.5678 20.9533 15.0078 20.2633 15.0078C19.5733 15.0078 19.0133 15.5678 19.0133 16.2578V18.7541Z" fill="white"/>
</svg>
