<svg width="38" height="38" viewBox="0 0 38 38" fill="none" xmlns="http://www.w3.org/2000/svg">
<path d="M0.598387 36.4968L8.73276 28.4066L8.64426 28.3184C6.65495 26.3291 6.65495 23.1019 8.64426 21.1123L10.8106 18.946L13.3306 21.4661L13.9495 20.8472L11.4295 18.3271L15.1873 14.5692L19.5641 18.946L20.183 18.3271L15.8062 13.9503L19.5638 10.1928L22.0839 12.7128L22.7028 12.0939L20.1827 9.57386L22.349 7.40756C24.3383 5.41826 27.5655 5.41826 29.5551 7.40756L29.6436 7.49607L32.1192 5.02047L28.6709 1.5722L29.6432 0.599611L37.4682 8.4246L36.5396 9.35314L33.0914 5.90487L30.6158 8.38047L30.8369 8.60158C32.8262 10.5909 32.8262 13.818 30.8369 15.8077L17.088 29.5565C15.0987 31.5458 11.8716 31.5458 9.88196 29.5565L9.66085 29.3354L1.57069 37.4256L0.598387 36.4968Z" fill="white"/>
</svg>
