<svg width="31" height="30" viewBox="0 0 31 30" fill="none" xmlns="http://www.w3.org/2000/svg">
<path d="M24.8864 4.74733C23.1126 4.75254 21.4547 5.62976 20.4525 7.09346C19.4506 8.55746 19.2327 10.4204 19.8695 12.0759C20.5066 13.7315 21.9171 14.9677 23.642 15.3823V18.8495C23.642 23.4122 20.6641 27.145 17.0055 27.145C13.3473 27.145 10.369 23.4122 10.369 18.8495L10.3693 16.2572C14.8156 15.5316 18.25 11.0228 18.25 5.5768V1.84399C18.25 1.51388 18.1189 1.19736 17.8854 0.964157C17.6523 0.730677 17.3357 0.599609 17.0056 0.599609H14.1023C13.6576 0.599609 13.247 0.836852 13.0245 1.22165C12.8023 1.60674 12.8023 2.08119 13.0245 2.46604C13.247 2.85113 13.6576 3.08837 14.1023 3.08837H15.7612V5.57715C15.7612 10.1398 12.7832 13.8726 9.12471 13.8726C5.46649 13.8726 2.4882 10.1398 2.4882 5.57715L2.48849 3.08837H4.14773C4.59212 3.08837 5.00297 2.85113 5.22517 2.46604C5.44737 2.08124 5.44737 1.60672 5.22517 1.22165C5.00297 0.836852 4.59213 0.599609 4.14773 0.599609H1.2441C0.914271 0.599609 0.597746 0.73067 0.364259 0.964157C0.131068 1.19735 0 1.51387 0 1.84399V5.5768C0 11.0227 3.43424 15.5313 7.88068 16.2572V18.8495C7.88068 24.7974 11.9746 29.6336 17.0057 29.6336C22.037 29.6336 26.1307 24.7973 26.1307 18.8495V15.3823C27.8556 14.9677 29.2661 13.7315 29.9032 12.0759C30.5403 10.4204 30.3221 8.55746 29.3202 7.09346C28.3183 5.62976 26.6605 4.75259 24.8866 4.74733H24.8864Z" fill="white"/>
<path fill-rule="evenodd" clip-rule="evenodd" d="M11.8511 8.33372C12.2368 8.68723 12.4939 9.20145 12.4939 9.77996C12.4939 11.0977 11.3048 11.6119 10.1799 11.2584C9.53708 11.0656 8.89435 11.0656 8.25155 11.2584C7.12671 11.6119 5.9375 11.0977 5.9375 9.77996C5.9375 9.20145 6.1946 8.68725 6.5803 8.33372C6.86952 8.07662 7.0624 7.78734 7.22309 7.4017C7.54449 6.63039 8.3158 6.08398 9.21573 6.08398C10.1157 6.08398 10.887 6.63037 11.2084 7.4017C11.3691 7.7874 11.5619 8.07661 11.8512 8.33372H11.8511Z" fill="white"/>
<path fill-rule="evenodd" clip-rule="evenodd" d="M7.67269 2.99805C8.21908 2.99805 8.66901 3.54443 8.66901 4.21935C8.66901 4.86215 8.21909 5.40848 7.67269 5.40848C7.1263 5.40848 6.7085 4.86209 6.7085 4.21935C6.7085 3.54445 7.1263 2.99805 7.67269 2.99805Z" fill="white"/>
<path fill-rule="evenodd" clip-rule="evenodd" d="M10.7563 2.99805C11.3027 2.99805 11.7526 3.54443 11.7526 4.21935C11.7526 4.86215 11.3027 5.40848 10.7563 5.40848C10.2099 5.40848 9.76001 4.86209 9.76001 4.21935C9.76001 3.54445 10.2099 2.99805 10.7563 2.99805Z" fill="white"/>
<path fill-rule="evenodd" clip-rule="evenodd" d="M13.0714 5.50486C13.5535 5.66557 13.8106 6.24406 13.6178 6.85469C13.4571 7.4332 12.9107 7.81888 12.4286 7.65819C11.9465 7.52961 11.6894 6.91899 11.8823 6.30836C12.043 5.72985 12.5893 5.37634 13.0714 5.50486Z" fill="white"/>
<path fill-rule="evenodd" clip-rule="evenodd" d="M5.3576 5.50486C4.8755 5.66557 4.6184 6.24406 4.81121 6.85469C4.97192 7.4332 5.51825 7.81888 6.00034 7.65819C6.48244 7.52961 6.73954 6.91899 6.57885 6.30836C6.38603 5.72985 5.83965 5.37634 5.35754 5.50486H5.3576Z" fill="white"/>
</svg>
