<svg width="40" height="40" viewBox="0 0 40 40" fill="none" xmlns="http://www.w3.org/2000/svg">
<g clip-path="url(#clip0_3991_48834)">
<path d="M34.4207 24.7506L28.1707 21.9173C27.7305 21.7447 27.2598 21.6631 26.7872 21.6774C26.3145 21.6917 25.8497 21.8017 25.4207 22.0006L24.1707 22.7506C22.9067 23.4903 21.4686 23.8801 20.004 23.8801C18.5395 23.8801 17.1014 23.4903 15.8374 22.7506L14.6707 22.0839H14.5874C14.1584 21.885 13.6935 21.775 13.2209 21.7607C12.7483 21.7464 12.2776 21.828 11.8374 22.0006L5.6707 24.7506H5.58737C5.15048 24.9604 4.78398 25.2926 4.53247 25.7068C4.28095 26.1211 4.15526 26.5995 4.1707 27.0839V35.8339C4.1707 36.276 4.3463 36.6999 4.65886 37.0124C4.97142 37.325 5.39534 37.5006 5.83737 37.5006C6.2794 37.5006 6.70332 37.325 7.01588 37.0124C7.32844 36.6999 7.50404 36.276 7.50404 35.8339V27.5006L12.9207 25.0839V29.0006C12.0867 29.2955 11.3838 29.8757 10.9362 30.6387C10.4886 31.4017 10.3251 32.2984 10.4747 33.1703C10.6243 34.0421 11.0773 34.833 11.7536 35.4032C12.43 35.9734 13.2861 36.2861 14.1707 36.2861C15.0553 36.2861 15.9114 35.9734 16.5878 35.4032C17.2641 34.833 17.7171 34.0421 17.8667 33.1703C18.0163 32.2984 17.8528 31.4017 17.4052 30.6387C16.9576 29.8757 16.2547 29.2955 15.4207 29.0006V26.2506C16.8695 26.8695 18.4286 27.1886 20.004 27.1886C21.5795 27.1886 23.1386 26.8695 24.5874 26.2506V28.5006C23.5154 28.7774 22.5656 29.4021 21.8869 30.2768C21.2083 31.1516 20.8391 32.2268 20.8374 33.3339V35.4173C20.8374 35.9698 21.0569 36.4997 21.4476 36.8904C21.8383 37.2811 22.3682 37.5006 22.9207 37.5006H23.754C24.0856 37.5006 24.4035 37.3689 24.6379 37.1345C24.8723 36.9001 25.004 36.5821 25.004 36.2506C25.004 35.9191 24.8723 35.6011 24.6379 35.3667C24.4035 35.1323 24.0856 35.0006 23.754 35.0006H23.3374V33.3339C23.3374 32.6709 23.6008 32.035 24.0696 31.5662C24.5384 31.0973 25.1743 30.8339 25.8374 30.8339C26.5004 30.8339 27.1363 31.0973 27.6051 31.5662C28.074 32.035 28.3374 32.6709 28.3374 33.3339V35.0006H27.9207C27.5892 35.0006 27.2712 35.1323 27.0368 35.3667C26.8024 35.6011 26.6707 35.9191 26.6707 36.2506C26.6707 36.5821 26.8024 36.9001 27.0368 37.1345C27.2712 37.3689 27.5892 37.5006 27.9207 37.5006H28.754C29.3066 37.5006 29.8365 37.2811 30.2272 36.8904C30.6179 36.4997 30.8374 35.9698 30.8374 35.4173V33.3339C30.8356 32.2268 30.4665 31.1516 29.7878 30.2768C29.1091 29.4021 28.1593 28.7774 27.0874 28.5006V25.0839L32.504 27.5006V35.8339C32.504 36.276 32.6796 36.6999 32.9922 37.0124C33.3047 37.325 33.7287 37.5006 34.1707 37.5006C34.6127 37.5006 35.0367 37.325 35.3492 37.0124C35.6618 36.6999 35.8374 36.276 35.8374 35.8339V27.0839C35.8528 26.5995 35.7271 26.1211 35.4756 25.7068C35.2241 25.2926 34.8576 24.9604 34.4207 24.7506ZM14.1707 33.7506C13.9235 33.7506 13.6818 33.6773 13.4762 33.5399C13.2707 33.4026 13.1105 33.2074 13.0159 32.9789C12.9212 32.7505 12.8965 32.4992 12.9447 32.2567C12.993 32.0143 13.112 31.7915 13.2868 31.6167C13.4616 31.4419 13.6844 31.3228 13.9268 31.2746C14.1693 31.2264 14.4206 31.2511 14.6491 31.3457C14.8775 31.4404 15.0727 31.6006 15.21 31.8061C15.3474 32.0117 15.4207 32.2534 15.4207 32.5006C15.4207 32.8321 15.289 33.1501 15.0546 33.3845C14.8202 33.6189 14.5022 33.7506 14.1707 33.7506Z" fill="white"/>
<path d="M20.0041 20.8333C21.8171 20.8333 23.5893 20.2957 25.0968 19.2885C26.6042 18.2812 27.7792 16.8496 28.473 15.1746C29.1668 13.4996 29.3483 11.6565 28.9946 9.87834C28.6409 8.10018 27.7679 6.46684 26.4859 5.18486C25.2039 3.90288 23.5706 3.02984 21.7924 2.67614C20.0142 2.32244 18.1711 2.50397 16.4961 3.19778C14.8211 3.89158 13.3895 5.06649 12.3823 6.57394C11.375 8.08139 10.8374 9.85367 10.8374 11.6667C10.8374 14.0978 11.8032 16.4294 13.5223 18.1485C15.2413 19.8676 17.5729 20.8333 20.0041 20.8333ZM20.0041 5.83334C21.1578 5.83334 22.2856 6.17546 23.2449 6.81643C24.2042 7.45741 24.9519 8.36845 25.3934 9.43435C25.8349 10.5003 25.9504 11.6731 25.7253 12.8047C25.5002 13.9363 24.9447 14.9757 24.1289 15.7915C23.3131 16.6073 22.2737 17.1628 21.1421 17.3879C20.0105 17.613 18.8377 17.4975 17.7717 17.056C16.7058 16.6145 15.7948 15.8668 15.1538 14.9075C14.5129 13.9482 14.1707 12.8204 14.1707 11.6667C14.1707 10.1196 14.7853 8.63584 15.8793 7.54188C16.9732 6.44792 18.457 5.83334 20.0041 5.83334Z" fill="white"/>
</g>
<defs>
<clipPath id="clip0_3991_48834">
<rect width="40" height="40" fill="white" transform="translate(0.00390625)"/>
</clipPath>
</defs>
</svg>
