<svg width="29" height="40" viewBox="0 0 29 40" fill="none" xmlns="http://www.w3.org/2000/svg">
<path d="M7.18167 0.409309L7.1834 0.408989C7.54428 0.34042 8.23294 0.302929 8.9399 0.302929C9.6477 0.302929 10.327 0.34053 10.6707 0.40855L10.6725 0.408897C12.0882 0.680298 13.3557 1.62911 14.0409 2.94788L14.0412 2.94842C14.2641 3.37548 14.4034 3.71859 14.4936 4.10191C14.5845 4.48846 14.6286 4.92839 14.6479 5.5532L14.6479 5.55519C14.6598 5.87224 14.6797 6.18436 14.7027 6.43471C14.7142 6.55965 14.7267 6.67164 14.7398 6.76233C14.7514 6.84269 14.7671 6.93485 14.7918 7.00084L14.7929 7.00363C14.8455 7.1398 14.9491 7.27978 15.056 7.40229C15.1682 7.53094 15.3056 7.66449 15.4503 7.78896C15.7288 8.02852 16.0757 8.26995 16.3534 8.36001C16.5753 8.43516 16.8029 8.47703 17.0194 8.43136C17.2526 8.38217 17.4298 8.2412 17.5572 8.03859C17.6779 7.84662 17.757 7.59571 17.8144 7.30091C17.8726 7.00244 17.9127 6.63572 17.9423 6.19698L17.9424 6.19628C18.0356 4.76644 18.1739 4.09832 18.4739 3.49842L18.4754 3.49525C18.8291 2.76651 19.3592 2.33327 19.977 2.17543C20.6005 2.01617 21.3562 2.12667 22.1708 2.57271C22.7384 2.88439 23.4798 3.45428 24.1954 4.10902C24.9098 4.7627 25.5791 5.4832 26.0081 6.08519C28.0317 8.92587 28.6172 11.8507 27.8139 14.9206C27.5127 16.0559 27.4459 16.2726 26.3208 19.4838L26.3204 19.485C26.0659 20.2212 25.821 20.9558 25.6318 21.5461C25.4455 22.127 25.3061 22.5895 25.2707 22.7664L25.2702 22.7692C24.8707 24.8704 24.9227 28.2545 25.4222 34.2408L25.4222 34.2411C25.6022 36.3654 25.6933 37.481 25.7223 38.1105C25.7511 38.7382 25.7146 38.8347 25.6692 38.9482L25.6688 38.9491C25.5574 39.2301 25.2793 39.3961 24.9626 39.4082C24.6458 39.4203 24.3521 39.2757 24.216 39.0035L24.2132 38.9979L24.2132 38.998C24.19 38.9539 24.162 38.8766 24.1399 38.7839C24.118 38.6918 24.1071 38.6069 24.1071 38.5518C24.1071 38.3636 23.9881 36.7437 23.8404 34.9722C23.8404 34.9722 23.8404 34.9722 23.8404 34.9722L23.5415 34.9971C23.1743 30.5752 23.0962 29.208 23.0962 26.708C23.0962 24.5439 23.2055 22.9814 23.4399 21.9814L7.18167 0.409309ZM7.18167 0.409309C5.86652 0.651176 4.74092 1.14793 3.76683 1.91971L3.76671 1.91981C2.37279 3.02302 1.28758 4.96014 0.930836 7.02472L0.930822 7.0248C0.832256 7.59429 0.841234 8.36457 0.942488 9.14499C1.04366 9.92478 1.23342 10.6874 1.47975 11.2426L1.48031 11.2439C2.33595 13.1965 4.24466 14.3595 7.11062 14.5729L7.11062 14.5729L7.11378 14.5732C7.47444 14.6038 8.4374 14.6583 9.2659 14.6974L7.18167 0.409309ZM3.58053 1.68457C4.59615 0.879883 5.76803 0.364258 7.1274 0.114258L3.58053 1.68457ZM3.58053 1.68457C2.11959 2.84082 1.0024 4.84863 0.635216 6.97363L3.58053 1.68457ZM24.7775 18.925C24.2536 20.4106 23.7919 21.813 23.7315 22.0522L9.25241 14.9971C10.9087 15.0674 11.2602 15.1611 11.7602 15.6455L11.967 15.4282C11.9673 15.4285 11.9676 15.4288 11.9679 15.429C12.3386 15.7822 12.5779 16.1876 12.7543 16.8549C12.9267 17.5068 13.0436 18.4252 13.1684 19.814L13.1684 19.8141C13.2466 20.6905 13.3022 21.2028 13.3905 21.6499C13.478 22.093 13.5991 22.479 13.8168 23.1011L13.8169 23.1015C14.731 25.7243 15.4348 30.9896 15.7552 37.3648L15.7552 37.3653C15.7864 38.0053 15.8154 38.4659 15.8469 38.7872C15.8626 38.9479 15.8785 39.069 15.8946 39.1577C15.9026 39.2019 15.9102 39.2354 15.917 39.2601C15.9204 39.2723 15.9233 39.2814 15.9256 39.2879C15.928 39.2945 15.9293 39.2974 15.9293 39.2973C16.041 39.5309 16.295 39.6971 16.6821 39.6971C16.8446 39.6971 16.9116 39.6864 16.9574 39.6699C16.9995 39.6547 17.0485 39.6258 17.1537 39.5315L17.1537 39.5315L17.1575 39.5282C17.2967 39.4076 17.3681 39.3001 17.4093 39.1494C17.4553 38.9814 17.4682 38.7434 17.4451 38.3506L17.4451 38.3506L17.4449 38.3463C17.4376 38.183 17.4222 37.8926 17.4038 37.5465C17.3823 37.1433 17.3568 36.6647 17.3356 36.2235C16.9998 30.11 16.2199 24.8602 15.2832 22.2878C15.1289 21.8683 15.036 21.5836 14.9679 21.2066C14.9014 20.8382 14.8594 20.3856 14.7972 19.6318C14.6572 18.0055 14.5805 17.4667 14.3743 16.5731C13.936 14.7089 12.834 13.5678 11.1903 13.2203L11.189 13.22C10.9289 13.1637 9.94067 13.0784 8.98891 13.0311C5.94225 12.9064 4.80852 12.6521 3.80419 11.6995C2.97192 10.9183 2.60398 9.91947 2.52322 8.45194C2.4573 7.37023 2.65886 6.46827 3.17701 5.3834C3.77633 4.12808 4.39139 3.40757 5.46524 2.76326L5.46553 2.76309C6.56311 2.1062 8.30333 1.78685 9.76973 1.94888L9.77183 1.94912C10.3927 2.02217 10.9069 2.16058 11.3421 2.40163C11.7811 2.64479 12.1222 2.98269 12.4105 3.42775L12.4109 3.42845C12.6446 3.79151 12.803 4.13169 12.902 4.55695C12.9993 4.97478 13.0367 5.46359 13.0446 6.11846L13.0446 6.11993C13.0486 6.67801 13.0533 6.92537 13.0851 7.10887C13.1142 7.27642 13.1655 7.39056 13.3049 7.68922C13.7784 8.679 14.7709 9.56847 15.8124 9.93263L15.8124 9.93266C16.0399 10.0123 16.1804 10.0509 16.3295 10.0695C16.4821 10.0885 16.6569 10.088 16.9556 10.0725L16.957 10.0724C17.3491 10.0539 17.6412 9.99557 17.8882 9.89082C18.1328 9.78702 18.3505 9.63022 18.5833 9.39041C19.2199 8.72547 19.509 7.90696 19.6013 6.19189L19.6014 6.19051C19.6715 4.99064 19.7189 4.67278 19.9772 4.17345C20.029 4.07038 20.0988 3.9656 20.2018 3.8867C20.3122 3.80217 20.4396 3.76337 20.5747 3.7625C20.8126 3.76098 21.0824 3.87969 21.3778 4.03696L21.3783 4.03726C21.6835 4.20058 22.1402 4.53717 22.5826 4.90113C23.0287 5.26807 23.484 5.68246 23.7864 6.01347L23.7864 6.0135C25.9757 8.41056 26.9219 11.2317 26.3664 13.8866L26.3663 13.8871C26.1506 14.9094 25.8858 15.7484 24.7778 18.924L24.7775 18.925Z" fill="white" stroke="#0E82FD" stroke-width="0.6"/>
</svg>
