<svg width="41" height="38" viewBox="0 0 41 38" fill="none" xmlns="http://www.w3.org/2000/svg">
<path d="M9.207 0.415649C7.8945 0.564087 6.53512 1.24377 5.35544 2.33752C2.75387 4.74377 1.03512 8.87659 0.581998 13.7906C0.449186 15.2594 0.527311 18.3531 0.738248 19.7438C1.72262 26.1735 4.92575 30.8766 8.84762 31.6266C9.53512 31.7516 10.832 31.7672 11.7617 31.6578C14.1914 31.361 15.8164 30.2047 16.6757 28.1735C17.3242 26.6344 17.1992 25.5563 15.9961 22.2438C14.9336 19.3141 14.582 18.0563 14.4726 16.8219L14.4414 16.4078L14.7617 16.4547C15.8398 16.6344 16.9961 17.2672 17.9414 18.2125C18.7226 18.9938 19.1445 19.6735 19.5117 20.7203L19.7695 21.4625L19.8086 29.3297L19.8476 37.2047L20.0586 37.4078C20.3476 37.6969 20.832 37.6969 21.1211 37.4078L21.332 37.2047L21.3711 29.3297C21.4101 21.5953 21.4179 21.4547 21.582 20.9547C21.6679 20.6735 21.8164 20.2828 21.9023 20.0797C22.4726 18.7906 23.7617 17.486 25.0586 16.9C25.5273 16.6891 26.5195 16.3844 26.5664 16.4391C26.582 16.4547 26.5429 16.7985 26.4882 17.2047C26.3554 18.2203 26.0742 19.2828 25.5664 20.7203C25.332 21.3844 24.9414 22.486 24.6992 23.1656C23.9101 25.4 23.7773 26.5875 24.207 27.8141C24.7617 29.4156 25.8867 30.611 27.3867 31.2125C28.332 31.5875 29.082 31.6969 30.707 31.6969C32.1289 31.6969 32.2148 31.6813 32.8164 31.4781C34.1914 30.9938 35.3554 30.2047 36.3554 29.0641C38.332 26.8219 39.6992 23.5797 40.2851 19.7438C40.4961 18.3531 40.5742 15.2594 40.4414 13.7906C39.7617 6.43127 36.1758 0.907837 31.7461 0.415649C29.7773 0.196899 27.7851 0.923462 26.2461 2.43909C24.9804 3.68909 24.2773 5.22034 24.1367 7.03284C24.0507 8.18127 24.3007 9.15784 25.2773 11.4703C25.5742 12.1891 25.8242 12.8063 25.8242 12.8453C25.8242 12.9625 25.1836 12.4781 24.8086 12.0797C23.8007 11.0016 23.0507 9.34534 22.8554 7.77502C22.7226 6.72815 22.6523 6.51721 22.3867 6.3844C22.0586 6.21252 21.8086 6.23596 21.5351 6.47034C21.3086 6.65784 21.2929 6.70471 21.2929 7.24377C21.2929 8.99377 22.207 11.3688 23.4336 12.7906C24.2226 13.7047 24.832 14.1422 25.7695 14.4781C26.1211 14.6031 26.4179 14.7047 26.4257 14.7047C26.4414 14.7047 26.4492 14.7516 26.4492 14.8141C26.4492 14.8844 26.3242 14.9469 26.1211 14.9781C25.6757 15.0485 24.6367 15.4156 24.1289 15.6656C22.8242 16.3297 21.5742 17.5328 20.8554 18.8219C20.7304 19.0485 20.6132 19.236 20.5898 19.236C20.5664 19.236 20.4492 19.0485 20.3242 18.8219C19.2382 16.8844 17.2617 15.4313 15.1132 14.9938C14.4336 14.8531 14.4023 14.6891 15.0195 14.5094C15.6367 14.3297 16.1132 14.0719 16.6601 13.6344C18.3945 12.2281 19.7461 9.6344 19.8632 7.47815C19.9023 6.7594 19.8867 6.68127 19.7382 6.52502C19.2929 6.05627 18.5429 6.28284 18.4492 6.90784C18.2773 8.11877 18.1992 8.49377 18.0117 9.04065C17.6367 10.1422 17.0898 11.0641 16.332 11.8766C15.9414 12.2985 15.1992 12.9078 15.1992 12.8063C15.1992 12.7828 15.4492 12.1891 15.7461 11.4703C16.7226 9.15784 16.9726 8.18127 16.8867 7.03284C16.7461 5.22034 16.0429 3.68909 14.7773 2.43909C13.2304 0.923462 11.207 0.189087 9.207 0.415649ZM11.0586 2.01721C12.1523 2.27502 13.4179 3.07971 14.1132 3.97034C14.832 4.89221 15.1914 5.72034 15.3554 6.86877C15.4336 7.41565 15.4336 7.60315 15.3164 8.15784C15.1992 8.72815 14.7851 9.90002 14.3554 10.861L14.207 11.1891L14.0586 10.861C13.7773 10.236 13.1601 9.36877 12.582 8.80627C11.6211 7.86877 10.4023 7.24377 9.16794 7.04846C8.10544 6.87659 7.62106 7.08752 7.62106 7.71252C7.62106 8.22034 7.87106 8.42346 8.582 8.49377C9.33981 8.56409 10.0664 8.8219 10.7304 9.26721C12.4414 10.4 13.5039 12.6188 13.1523 14.3141L13.0429 14.8219L10.8867 14.8453L8.73044 14.861L8.52731 15.0719C8.25387 15.3375 8.24606 15.7828 8.51169 16.0875L8.69919 16.3063L10.8242 16.3297L12.9492 16.3531L12.8945 16.8375C12.6367 19.1031 11.3398 21.0172 9.6445 21.6656C9.44137 21.7438 8.98825 21.8453 8.62887 21.8844C8.07419 21.9547 7.94137 22.0016 7.80075 22.1656C7.54294 22.4547 7.55856 22.9313 7.82419 23.1969C8.01169 23.3844 8.05075 23.3922 8.73825 23.361C9.55075 23.3219 10.3242 23.0875 11.0351 22.6578C11.7226 22.2516 12.6132 21.3688 13.0898 20.6188C13.3242 20.2438 13.5429 19.9469 13.5664 19.9391C13.5976 19.9391 13.6601 20.1031 13.7148 20.3063C13.7695 20.5172 14.1054 21.4703 14.457 22.4391C15.5039 25.3219 15.707 26.2203 15.4726 27.0172C15.0351 28.5328 13.9726 29.5875 12.4882 29.9781C11.7148 30.1891 10.2851 30.2906 9.49606 30.1891C7.28512 29.9156 5.32419 28.1813 3.91794 25.2516C3.33981 24.0485 3.05856 23.2516 2.69919 21.8531C2.16794 19.7985 2.03512 18.6031 2.03512 16.0328C2.04294 14.3063 2.07419 13.5953 2.17575 12.8688C2.707 9.32971 3.77731 6.49377 5.32419 4.54846C7.0195 2.40784 9.00387 1.53284 11.0586 2.01721ZM32.1679 2.01721C35.4414 2.86096 37.9648 6.97034 38.8476 12.8688C38.9492 13.5953 38.9804 14.3063 38.9882 16.0328C38.9882 18.6031 38.8554 19.7985 38.3242 21.8531C37.9648 23.2516 37.6836 24.0485 37.1054 25.2516C35.6992 28.1813 33.7383 29.9156 31.5273 30.1891C30.7382 30.2906 29.3086 30.1891 28.5351 29.9781C27.0507 29.5875 25.9882 28.5328 25.5507 27.0172C25.3164 26.2203 25.5195 25.3219 26.5664 22.4391C26.9179 21.4703 27.2539 20.5172 27.3086 20.3063C27.3632 20.1031 27.4336 19.9391 27.4648 19.9391C27.5039 19.9391 27.6132 20.0875 27.7226 20.2672C28.7773 22.0485 30.957 23.3766 32.8242 23.3766C33.3554 23.3766 33.4023 23.361 33.5898 23.1344C34.0742 22.5641 33.6445 21.8922 32.7929 21.8922C32.6445 21.8922 32.3086 21.8375 32.0429 21.7672C30.0117 21.2438 28.332 19.1422 28.1211 16.8531L28.0664 16.2672H30.3711C32.6601 16.2672 32.6757 16.2672 32.832 16.0875C32.9179 15.9938 33.0195 15.8375 33.0507 15.736C33.1211 15.4938 32.957 15.0328 32.7539 14.9156C32.6289 14.8531 31.9101 14.8141 30.2851 14.7828L27.9882 14.7438L27.8398 14.1578C27.6445 13.3766 27.6523 13.1813 27.9257 12.3688C28.2304 11.4625 28.7773 10.5797 29.457 9.89221C30.2929 9.04065 31.1992 8.59534 32.2929 8.48596C32.9961 8.42346 33.2461 8.22034 33.2461 7.71252C33.2461 7.05627 32.707 6.85315 31.5273 7.07971C29.8007 7.40002 28.2461 8.58752 27.1523 10.4078L26.7617 11.0563L26.5586 10.5953C26.1445 9.66565 25.8242 8.75159 25.6992 8.1344C25.4336 6.8219 25.8867 5.28284 26.9101 3.97034C27.5898 3.09534 28.8632 2.27502 29.9336 2.01721C30.5586 1.86877 31.5976 1.86877 32.1679 2.01721Z" fill="#0E82FD"/>
</svg>
