<svg width="26" height="40" viewBox="0 0 26 40" fill="none" xmlns="http://www.w3.org/2000/svg">
<path d="M13.2217 0.711819C13.0029 0.836819 12.9248 1.29776 12.917 2.46182C12.917 3.06338 12.9014 3.51651 12.8857 3.47744C12.8701 3.43057 12.7451 2.97744 12.6045 2.46963C12.4639 1.95401 12.2842 1.46963 12.2061 1.39151C12.0029 1.18838 11.6592 1.21182 10.4014 1.52432C8.80762 1.92276 8.78418 1.93057 8.66699 2.21963C8.57324 2.43838 8.59668 2.63369 8.87012 3.98526C9.08887 5.04776 9.1748 5.66494 9.15918 6.01651L9.13574 6.52432L8.5498 4.96182C8.22949 4.11026 7.90918 3.34463 7.83105 3.26651C7.55762 2.99307 7.22168 3.08682 5.7373 3.82901C4.52637 4.43057 4.32324 4.56338 4.27637 4.74307C4.19043 5.06338 4.21387 5.12588 4.91699 7.03213C5.27637 8.00088 5.62012 9.00088 5.69043 9.25869C5.8623 9.93838 6.0498 11.1493 6.0498 11.6103C6.0498 11.9853 6.02637 12.0321 5.76074 12.2353C3.08105 14.2353 1.14355 17.5399 0.620117 20.9774C0.463867 22.0087 0.463867 24.0478 0.620117 25.1103C1.08105 28.2196 2.6748 31.1571 5.05762 33.2665C5.76074 33.8993 11.8701 38.0243 12.7451 38.4618C13.417 38.8056 14.5889 39.1728 15.3623 39.2978C16.3311 39.454 18.1826 39.3603 19.0889 39.1103C22.3936 38.1884 24.8857 35.4306 25.4248 32.1024C25.5654 31.2431 25.4873 26.9149 25.3154 25.6649C25.0029 23.454 24.6436 22.0399 24.0967 20.9071C23.8076 20.2978 23.0264 19.1024 22.7373 18.8368L22.542 18.6571L22.9561 17.8212C23.5107 16.7274 23.6279 16.3056 23.6279 15.4384C23.6279 14.1728 23.2842 13.329 22.417 12.4618C22.1123 12.1571 21.7217 11.8446 21.5342 11.7509L21.2061 11.5868L21.9639 11.4071C22.8311 11.1962 23.0029 11.0634 23.0029 10.6415C23.0029 10.3524 22.4482 7.44619 22.3389 7.16494C22.1826 6.77432 21.5029 6.78994 19.8389 7.22744C19.7139 7.25869 19.6201 7.18057 19.4092 6.86807C19.0342 6.30557 18.3545 5.63369 17.6826 5.15713C16.792 4.53213 16.7998 4.56338 16.7529 2.55557C16.7139 0.977444 16.6982 0.836819 16.5654 0.735256C16.4404 0.649319 16.0811 0.625881 14.8857 0.625881C14.0107 0.625881 13.2998 0.664944 13.2217 0.711819ZM15.5029 3.21963C15.5029 4.46963 15.5186 4.60244 15.6904 4.96182C15.9404 5.50869 16.2217 5.81338 16.8701 6.25088C17.1748 6.46182 17.6514 6.86807 17.917 7.16494C18.3936 7.68057 18.4014 7.69619 18.2217 7.76651C18.1201 7.79776 17.5889 8.05557 17.0264 8.32119C14.4404 9.57119 12.3467 11.3993 10.7139 13.8524C10.4326 14.2665 10.1826 14.5868 10.1592 14.5478C10.0264 14.3368 9.94043 13.2978 9.97949 12.3524C10.0107 11.5087 10.0576 11.1493 10.2217 10.5946C10.6826 9.05557 11.1982 8.21963 12.5654 6.79776C13.9873 5.32901 14.2529 4.71182 14.2529 2.89932V1.87588H14.8779H15.5029V3.21963ZM11.667 4.08682L12.042 5.46182L11.5576 5.91494C11.292 6.16494 10.9404 6.53213 10.7686 6.72744L10.4639 7.08682L10.4873 6.21963C10.5107 5.49307 10.4717 5.15713 10.2686 4.18838C10.1436 3.54776 10.042 3.01651 10.0576 3.00088C10.0889 2.96963 11.2451 2.68057 11.2686 2.69619C11.2764 2.70401 11.4561 3.32901 11.667 4.08682ZM7.33105 5.53213C7.85449 6.98526 8.24512 7.72744 8.84668 8.36026L9.37793 8.93838L9.16699 9.49307C8.80762 10.4071 8.62793 11.4853 8.62793 12.6806C8.62793 13.8993 8.76074 14.7899 9.09668 15.7353C9.26855 16.2274 9.31543 16.4462 9.26074 16.5478C9.22168 16.6259 8.9248 16.7899 8.6123 16.9149C7.85449 17.204 7.37012 17.454 6.72168 17.8681C6.4248 18.0556 6.20605 18.1649 6.22949 18.1024C6.45605 17.5165 7.02637 15.6024 7.15918 14.9696C7.30762 14.2821 7.33105 13.9384 7.33887 12.3446C7.33887 10.7118 7.31543 10.4149 7.15918 9.66494C6.97949 8.82901 6.56543 7.53994 6.01855 6.11026C5.8623 5.70401 5.7373 5.36026 5.7373 5.34463C5.7373 5.31338 6.91699 4.69619 6.9873 4.69619C7.01074 4.68838 7.15918 5.07119 7.33105 5.53213ZM21.4092 9.18057C21.5029 9.65713 21.5654 10.0634 21.542 10.0946C21.5264 10.1337 21.4561 10.1571 21.4014 10.1571C21.1748 10.1571 19.4326 10.7743 18.7842 11.079C18.417 11.2509 17.8545 11.5009 17.5264 11.6337C16.167 12.1962 14.6592 13.8134 13.7607 15.6728L13.4561 16.2899H12.1748C11.4717 16.2899 10.8936 16.2821 10.8936 16.2665C10.8936 16.204 11.3311 15.3993 11.6123 14.9384C13.2686 12.2274 16.0811 9.94619 19.0967 8.86807C19.8545 8.60244 20.9795 8.28994 21.1279 8.30557C21.2061 8.32119 21.292 8.57901 21.4092 9.18057ZM20.6904 12.8368C21.2373 13.0868 21.7842 13.6415 22.0498 14.204C22.2373 14.5946 22.2607 14.7509 22.2607 15.4306V16.2118L21.7998 17.1649C21.3701 18.0556 21.3232 18.1259 21.1201 18.1259C20.7373 18.1259 19.7998 18.3524 19.1982 18.5946C18.6045 18.8368 17.6592 19.3993 17.4639 19.6337C17.4092 19.704 17.3311 19.7665 17.3076 19.7665C17.2764 19.7665 17.0811 19.4306 16.8779 19.0087C16.4639 18.1806 15.7607 17.3915 15.0889 17.0009L14.7217 16.7821L14.8467 16.5009C15.5029 14.9228 17.1045 13.1806 18.2686 12.7665C19.0654 12.4774 19.9639 12.5087 20.6904 12.8368ZM5.82324 14.7353C5.7373 15.1649 5.33105 16.5009 4.9248 17.704C4.19043 19.8993 4.19043 19.8993 3.72949 20.454C3.15137 21.1415 2.64355 21.8915 2.1748 22.7509L1.82324 23.3993L1.8623 22.3056C1.95605 19.9306 2.82324 17.5556 4.31543 15.5868C4.77637 14.9853 5.9248 13.7978 5.95605 13.8915C5.96387 13.9306 5.90918 14.3134 5.82324 14.7353ZM13.4639 17.7274C14.0811 17.9228 14.6279 18.2743 15.1045 18.7978C15.7061 19.4618 15.9482 20.0399 16.0889 21.1962C16.1514 21.6806 16.3389 21.8759 16.7529 21.8759C17.0107 21.8759 17.1279 21.8212 17.417 21.5556C17.6123 21.3759 17.7686 21.2743 17.7686 21.329C17.7686 21.8368 17.0811 24.204 16.6436 25.1806L16.4639 25.5868L15.9248 25.6806C15.6045 25.7353 15.1279 25.9071 14.7373 26.0946C14.2139 26.3603 13.9639 26.5478 13.4092 27.1181C12.7451 27.7978 12.3545 28.0478 11.9482 28.0478C11.7529 28.0478 11.7529 28.0556 11.7529 28.7196V29.3993L12.2061 29.3524C12.9482 29.2899 13.4873 28.9774 14.292 28.1649C14.6826 27.7665 15.1514 27.3681 15.3311 27.2743L15.667 27.1024L15.4561 27.4384C14.7529 28.5634 13.1826 30.3759 12.3467 31.0165C12.1514 31.1649 11.9951 31.329 11.9873 31.3759C11.9873 31.4696 12.6982 32.4149 12.7764 32.4228C12.8076 32.4228 13.1514 32.1181 13.542 31.7509C13.9326 31.3759 14.2764 31.0946 14.2998 31.1103C14.4248 31.2431 14.7373 32.8134 14.7764 33.5321L14.8232 34.3759H15.4717H16.1279V33.8056C16.1279 32.8837 15.8701 31.579 15.417 30.2196C15.3232 29.9306 15.3311 29.9149 15.6748 29.4774C16.167 28.8446 16.7764 27.8993 17.2373 27.0478L17.6279 26.3212L17.7842 26.5634C17.8623 26.704 17.9873 26.954 18.0576 27.1181C18.1748 27.4149 18.1748 27.4306 17.9326 27.8056C17.5342 28.4306 17.3779 28.9696 17.3779 29.7509C17.3779 30.5478 17.5342 31.0868 17.9561 31.7821C18.2607 32.2821 18.5498 33.0868 18.5498 33.4228C18.5498 33.5478 18.5732 33.8134 18.5967 34.0165L18.6514 34.3759H19.2607H19.8779V33.7274C19.8779 32.8524 19.7295 32.3212 19.1748 31.2118C18.7686 30.3993 18.7061 30.2196 18.7061 29.8446L18.7139 29.4149L18.9639 29.8837C19.2139 30.3524 20.542 31.7978 20.7217 31.7978C20.7686 31.7978 20.9717 31.5634 21.1592 31.2821L21.5029 30.7665L20.9014 30.1649C20.5029 29.7665 20.2217 29.4071 20.0576 29.0634C19.8232 28.6024 19.7373 28.3212 19.4795 27.1493C19.3545 26.579 18.9795 25.8368 18.5732 25.3368L18.2217 24.9071L18.4639 24.1571C18.5967 23.7353 18.7295 23.2821 18.7529 23.1415C18.7842 23.0087 18.8311 22.8915 18.8623 22.8915C19.0342 22.8915 19.9326 23.5946 20.2061 23.9384C20.542 24.3603 21.0498 25.3368 21.0498 25.5634C21.0498 25.6337 21.0811 25.7118 21.1201 25.7353C21.1904 25.7821 22.2998 25.579 22.3701 25.5009C22.4482 25.4306 22.2139 24.7196 21.9092 24.0946C21.7217 23.704 21.417 23.2665 21.1123 22.9306C20.6279 22.3993 19.6436 21.6806 19.2686 21.5868C19.0967 21.5478 19.0889 21.5165 19.1279 21.2196C19.1514 21.0478 19.1904 20.6962 19.2217 20.454L19.2686 20.0087L19.7529 19.8212C20.2764 19.6103 20.9326 19.454 21.2842 19.454C21.4639 19.454 21.5811 19.5478 21.9092 19.9618C22.7998 21.079 23.3311 22.2899 23.667 23.9306C23.9561 25.3915 24.0967 26.5946 24.1826 28.4696C24.3232 31.6962 24.0498 33.0946 22.9639 34.7353C21.8779 36.3603 20.1514 37.5399 18.2842 37.9228C17.9248 38.0009 17.2998 38.0556 16.792 38.0556C15.4951 38.0556 14.4795 37.8134 13.3389 37.2353C12.6357 36.8837 7.15918 33.2431 6.34668 32.5868C4.63574 31.2118 3.22949 29.1962 2.47168 27.0321L2.2373 26.3603L2.4873 25.5478C2.62793 25.0946 2.85449 24.4696 2.99512 24.1493C3.28418 23.4931 3.99512 22.2665 4.08105 22.2665C4.1123 22.2743 4.33105 22.579 4.56543 22.954C5.16699 23.8993 5.60449 24.4228 6.71387 25.5087C7.50293 26.2821 7.69043 26.5165 7.7998 26.829C8.00293 27.4384 7.96387 27.9853 7.65137 28.9071C7.50293 29.3524 7.37793 29.7431 7.37793 29.7743C7.37793 29.8603 8.57324 30.2431 8.63574 30.1728C8.66699 30.1415 8.82324 29.704 8.97949 29.1962C9.25293 28.3368 9.26855 28.2196 9.2373 27.4696C9.21387 26.7274 9.19043 26.6181 8.91699 26.0712C8.66699 25.5634 8.46387 25.3212 7.51855 24.3837C6.90918 23.7821 6.4248 23.2665 6.44824 23.2509C6.52637 23.1649 7.97168 23.5165 8.6748 23.7899C9.07324 23.9462 9.70605 24.2587 10.0732 24.4931C10.4482 24.7274 10.7607 24.9228 10.7686 24.9228C10.7764 24.9228 10.9561 24.6884 11.167 24.3993L11.5498 23.8837L11.292 23.6728C10.9014 23.3446 9.44824 22.6181 8.66699 22.3524C7.7998 22.0634 6.76074 21.8759 6.01074 21.8759H5.44043L5.22168 21.4384L4.99512 21.0009L5.62012 20.4228C7.62793 18.5634 9.82324 17.6024 12.1201 17.5868C12.7686 17.579 13.1123 17.6181 13.4639 17.7274Z" fill="#0E82FD"/>
</svg>
