<svg width="41" height="40" viewBox="0 0 41 40" fill="none" xmlns="http://www.w3.org/2000/svg">
<path d="M20.3105 0.396851C19.7402 0.490601 19.1543 0.787476 18.6934 1.20935L18.3105 1.54529L17.8652 1.2406C17.334 0.889038 17.0215 0.787476 16.3184 0.724976C15.7012 0.670288 15.1309 0.795288 14.5293 1.09216C14.0918 1.31091 13.4277 1.94373 13.2715 2.29529L13.1855 2.48279L12.7402 2.27185C12.3496 2.09216 12.209 2.06873 11.4434 2.06873C10.6387 2.06873 10.5527 2.08435 10.0527 2.31873C9.34961 2.65466 8.77148 3.24841 8.4668 3.93591L8.24023 4.45935L7.88867 4.39685C7.12305 4.26404 6.2168 4.4281 5.62305 4.81091C5.2793 5.02966 4.68555 5.65466 4.4668 6.02185C4.27148 6.34998 4.06055 7.10779 4.06055 7.49841C4.06055 7.77185 4.05273 7.77966 3.64648 7.8656C3.0293 7.99841 2.52148 8.26404 2.10742 8.6781C1.16211 9.62341 0.873047 11.1625 1.43555 12.2953L1.63086 12.6859L1.32617 12.9437C1.1543 13.1 0.912109 13.4281 0.763672 13.7328C0.513672 14.2328 0.505859 14.2953 0.505859 15.1547C0.505859 16.0297 0.513672 16.0765 0.771484 16.5922C1.13086 17.2953 1.70117 17.8187 2.33398 18.014L2.81055 18.1625V18.5297C2.81055 19.475 3.5293 20.4672 4.5918 20.9906C5.1543 21.2719 5.22461 21.2875 5.92773 21.2875C6.57617 21.2875 6.74023 21.2562 7.11523 21.0844L7.56055 20.8734L7.79492 21.2094C8.11523 21.6625 8.72461 22.139 9.27148 22.35C9.62305 22.4906 9.88086 22.5297 10.4277 22.5297C11.2559 22.5297 11.8184 22.3578 12.3887 21.9203L12.7559 21.639L13.1699 22.0375C13.6465 22.475 14.2559 22.7875 14.8418 22.8812C15.0605 22.9125 15.2559 22.9594 15.2715 22.9828C15.2949 23.0062 15.2793 23.1234 15.2324 23.2406C14.8496 24.2484 15.084 25.6078 15.7949 26.4984C16.0996 26.889 16.8105 27.3578 17.2949 27.4984C17.4902 27.5531 17.6543 27.639 17.6543 27.6859C17.6543 27.7328 17.6934 28.014 17.7402 28.3187C18.0215 30.2797 19.0996 32.1859 20.6152 33.389C21.2871 33.9203 21.959 34.3109 23.4434 35.0219C25.2246 35.8734 25.5449 36.2172 25.7402 37.4984C25.8965 38.5453 26.2559 39.0922 27.0215 39.4672C27.334 39.6234 27.5059 39.6469 28.2793 39.6469C29.0527 39.6469 29.2324 39.6234 29.584 39.4594C30.1152 39.225 30.5605 38.7328 30.7402 38.2015C31.123 37.0531 30.5605 34.7406 29.5605 33.3344C29.4121 33.1312 29.2949 32.9515 29.2949 32.9359C29.2949 32.9203 29.7246 32.889 30.2559 32.8656C31.7715 32.8031 33.0527 32.3812 34.2871 31.5531C36.2012 30.2797 37.4199 28.4047 37.8496 26.1C37.9121 25.7406 37.9668 25.2172 37.9668 24.9281C37.9668 24.4672 37.9434 24.3812 37.7715 24.2172C37.4902 23.9515 37.0684 23.9594 36.834 24.2328C36.7012 24.389 36.6543 24.5687 36.6152 25.1234C36.3887 28.2328 34.1465 30.8031 31.084 31.4437C30.459 31.5765 29.3184 31.5922 28.6387 31.4828C27.8105 31.35 27.084 31.0687 25.4668 30.264C24.0684 29.5609 23.8262 29.4125 23.5527 29.0844C23.2402 28.7094 22.8887 28.1 22.8887 27.9281C22.8887 27.8734 23.0449 27.8109 23.2402 27.7875C23.7715 27.7094 24.4043 27.3812 24.9043 26.9125L25.3574 26.4984L25.7793 26.764C26.3418 27.1156 26.8574 27.264 27.5293 27.264C28.6387 27.264 29.6074 26.7797 30.1699 25.9437C30.3027 25.7484 30.4199 25.5687 30.4355 25.5609C30.4434 25.5453 30.6777 25.6156 30.9512 25.725C31.6465 25.9984 32.123 26.0453 32.7949 25.9047C33.5215 25.7562 34.0449 25.4672 34.5215 24.9594C34.9434 24.514 35.1934 24.0844 35.2715 23.6547L35.3262 23.3734L36.0059 23.3422C36.5762 23.3265 36.7637 23.2797 37.1934 23.0687C38.5215 22.4125 39.2949 20.7406 38.873 19.4437C38.7637 19.1078 38.7559 19.0219 38.8418 18.975C39.9668 18.3422 40.5137 17.2875 40.4512 15.9125C40.4199 15.2953 40.3809 15.1234 40.1699 14.7094C40.0293 14.4437 39.8184 14.1 39.6855 13.9594L39.4512 13.6859L39.7168 13.2406C39.9902 12.7875 40.1543 12.2328 40.1543 11.7562C40.1543 11.0297 39.7871 10.0844 39.2715 9.48279C38.9668 9.13123 38.2402 8.70935 37.8027 8.63123L37.5137 8.57654L37.4824 7.90466C37.4434 7.06091 37.209 6.50623 36.6387 5.90466C35.9199 5.14685 34.748 4.71716 33.8809 4.90466L33.5137 4.98279L33.4277 4.65466C32.9512 2.88904 30.7949 1.84998 29.1074 2.56873C28.748 2.72498 28.7246 2.73279 28.623 2.59998C28.5684 2.52185 28.5137 2.4281 28.5137 2.39685C28.5137 2.35779 28.3184 2.12341 28.084 1.87341C26.9902 0.732788 25.2168 0.545288 23.9199 1.4281L23.5762 1.65466L23.2168 1.31091C23.0137 1.1156 22.748 0.889038 22.6152 0.803101C22.0762 0.443726 21.0762 0.264038 20.3105 0.396851ZM21.8652 1.94373C22.0293 2.02966 22.2871 2.25623 22.4277 2.43591C23.2246 3.48279 23.4043 3.51404 24.334 2.81873C25.0605 2.26404 25.4902 2.13123 26.0762 2.25623C26.8262 2.41248 27.1777 2.73279 27.6465 3.65466C27.8418 4.04529 27.959 4.1781 28.1699 4.26404C28.4355 4.37341 28.4668 4.37341 29.1465 4.0531C29.5371 3.88123 29.9902 3.71716 30.1543 3.69373C30.8574 3.59998 31.8105 4.19373 32.0762 4.89685L32.2168 5.25623L32.0215 5.38123C31.9199 5.44373 31.6543 5.6781 31.4355 5.89685C30.873 6.45935 30.6855 6.9906 30.6934 7.96716C30.7012 8.89685 30.584 9.17029 30.0527 9.43591C29.5371 9.70154 29.1309 9.62341 28.6934 9.18591C28.4277 8.91248 28.3574 8.77966 28.2715 8.35779C28.0996 7.48279 27.584 7.17029 27.0996 7.64685C26.834 7.91248 26.8184 8.09216 26.998 8.82654C27.2012 9.70935 27.6387 10.2719 28.4355 10.6781C28.8105 10.8656 28.9512 10.889 29.5293 10.889C30.334 10.889 30.834 10.7015 31.3105 10.2094C31.8652 9.63904 31.9824 9.31091 32.0293 8.2406C32.0762 7.20154 32.1621 6.95935 32.5996 6.66248C32.9355 6.43591 34.1934 6.17029 34.584 6.24841C35.2168 6.3656 35.748 6.78748 36.0293 7.40466C36.1621 7.70935 36.1777 7.84216 36.1309 8.5531C36.0762 9.33435 36.0762 9.3656 36.2559 9.54529C36.3887 9.6781 36.6465 9.77185 37.1465 9.88123C37.7949 10.014 37.873 10.0531 38.2012 10.3812C38.5996 10.7875 38.748 11.1625 38.748 11.8109C38.748 12.2719 38.6309 12.5062 38.0762 13.1547C37.6465 13.6547 37.709 13.8734 38.4824 14.7015C38.7871 15.0297 39.0059 15.3344 39.0527 15.5219C39.3262 16.5062 38.9121 17.4047 37.959 17.889C37.7324 18.0062 37.498 18.0453 36.9902 18.0453C36.209 18.0453 35.9121 17.9437 35.5684 17.5531C35.3262 17.2719 35.2871 17.1547 35.2012 16.3812C35.1074 15.5531 34.5371 14.7797 33.7559 14.3969C33.373 14.2094 33.2246 14.1781 32.6152 14.1781C31.7324 14.1781 31.2793 14.3422 30.7324 14.8578C30.248 15.3109 30.0059 15.8265 29.9121 16.6C29.834 17.1937 29.7012 17.4359 29.2949 17.7094C28.9668 17.9359 28.5605 17.9359 28.1699 17.7094C27.6777 17.4281 27.5605 17.2094 27.498 16.4359C27.4512 15.8265 27.4199 15.7328 27.2324 15.5687C26.959 15.3344 26.6309 15.3422 26.3496 15.5765C26.1387 15.7562 26.1309 15.7953 26.1387 16.4281C26.1543 17.1937 26.248 17.5453 26.6152 18.0922C27.4277 19.3265 29.248 19.5922 30.3652 18.6312C30.8262 18.2406 31.0762 17.764 31.1777 17.0922C31.2949 16.3109 31.459 15.9515 31.7949 15.7328C32.3496 15.3656 32.9434 15.389 33.4121 15.8031C33.7324 16.0844 33.9043 16.4359 33.9043 16.8187C33.9043 17.5219 34.373 18.4203 34.9746 18.8578C35.459 19.2172 36.0059 19.3734 36.7715 19.3734C37.3652 19.3734 37.3965 19.3812 37.4902 19.5765C37.6855 20.014 37.6855 20.4281 37.4824 20.8656C37.2559 21.35 36.9668 21.6703 36.5371 21.889C36.2637 22.0219 36.1387 22.0375 35.3574 21.9828L34.4746 21.9281L34.3184 22.1312C34.2324 22.2484 34.1152 22.5531 34.0684 22.8265C33.9277 23.5297 33.7246 23.9203 33.3262 24.2015C32.5527 24.7562 32.0215 24.7719 31.0449 24.264C30.6699 24.0687 30.2793 23.9047 30.1934 23.9047C29.9277 23.9047 29.6465 24.1703 29.3496 24.7094C29.0215 25.2875 28.748 25.5609 28.2793 25.7719C27.7949 25.9906 27.248 25.9828 26.7559 25.7406C26.0996 25.4281 25.959 25.2562 25.9199 24.764C25.8574 23.9594 25.2715 23.1312 24.498 22.7406C24.2949 22.6469 23.8809 22.5297 23.5762 22.4906C22.7324 22.389 22.3105 22.0687 22.2168 21.4672C22.1777 21.2562 22.2168 21.0844 22.3418 20.8265C22.5918 20.2953 22.8574 20.139 23.6465 20.0687C24.4434 19.9984 24.6855 19.8344 24.6855 19.3812C24.6777 18.8187 24.3262 18.6312 23.4199 18.7094C22.6621 18.7797 22.0293 19.0687 21.584 19.5453C21.1699 19.9984 21.0527 20.2406 20.9355 20.8344C20.8184 21.4125 20.873 21.85 21.123 22.389C21.498 23.2015 22.123 23.6234 23.1934 23.7953C24.0996 23.9437 24.498 24.2562 24.584 24.889C24.623 25.1781 24.5918 25.225 24.1465 25.7094C23.5918 26.3187 23.2168 26.4984 22.5527 26.4906C21.7012 26.4828 21.0918 25.9828 20.7793 25.0375C20.6934 24.7719 20.5527 24.4906 20.4668 24.4125C20.3887 24.3422 20.0605 24.2328 19.7402 24.1781C19.0215 24.0531 18.6309 23.8578 18.2246 23.4203C17.9512 23.1156 17.5762 22.3578 17.5762 22.0844C17.5762 21.8969 17.2559 21.475 17.0527 21.3969C16.9043 21.3422 16.7012 21.35 16.3184 21.4437C15.123 21.7094 14.4512 21.5219 13.7949 20.7328C13.2793 20.1156 13.1309 19.9984 12.834 19.9984C12.6621 19.9984 12.4746 20.0922 12.1855 20.3265C11.3809 20.9906 11.2324 21.0844 10.8184 21.1703C10.5059 21.2328 10.3105 21.2328 10.0605 21.1703C9.38867 20.9828 9.06055 20.7172 8.6543 20.014C8.16211 19.1547 7.9668 19.1156 6.9043 19.6547C6.24805 19.9906 6.16992 20.014 5.80273 19.9594C5.27148 19.889 4.6543 19.5219 4.39648 19.1234C4.20117 18.8422 4.17773 18.7094 4.1543 18.0765C4.11523 17.1547 4.0293 17.0453 3.17773 16.8422C2.2793 16.6312 1.88867 16.1859 1.81055 15.2719C1.75586 14.5765 1.95117 14.1859 2.59961 13.6781C2.88086 13.4594 3.13086 13.225 3.1543 13.1547C3.26367 12.8812 3.17773 12.5844 2.84961 12.0297C2.56055 11.5375 2.49805 11.3812 2.49805 11.0453C2.49805 10.0297 3.31055 9.14685 4.25586 9.13904C4.74805 9.13123 5.17773 9.00623 5.33398 8.81873C5.44336 8.6781 5.4668 8.51404 5.45898 7.89685C5.43555 6.81091 5.70898 6.28748 6.50586 5.88123C6.84961 5.70935 6.97461 5.68591 7.41992 5.72498C8.48242 5.8031 8.86523 6.09998 8.86523 6.82654C8.86523 7.15466 8.81836 7.3031 8.63086 7.56873C8.06836 8.3656 7.9043 8.69373 7.82617 9.13904C7.66992 10.0062 7.91992 10.8187 8.54492 11.4672C9.08398 12.0375 9.70117 12.2875 10.5215 12.2719C11.123 12.264 11.6309 12.0765 12.1543 11.6703C12.4043 11.4828 12.7168 11.2953 12.8652 11.2562C13.4199 11.1 14.0371 11.475 14.2168 12.0844C14.3652 12.5844 14.2637 12.9047 13.7871 13.4437C13.4277 13.8422 13.3574 13.975 13.3574 14.2172C13.3574 14.6078 13.6387 14.8734 14.0449 14.8656C14.2949 14.8578 14.3965 14.7875 14.7949 14.3656C15.4355 13.6859 15.584 13.3344 15.584 12.4594C15.584 11.8578 15.5527 11.6937 15.3809 11.3265C14.9434 10.4047 14.1309 9.88904 13.123 9.88904C12.4512 9.89685 11.998 10.0609 11.459 10.4906C11.0059 10.8656 10.8418 10.9359 10.4668 10.9359C9.77148 10.9359 9.13867 10.3031 9.13867 9.6156C9.13867 9.2406 9.25586 8.98279 9.63867 8.52966C10.373 7.64685 10.4277 6.2406 9.76367 5.31873C9.53711 5.01404 9.5293 4.97498 9.61523 4.68591C9.83398 3.95935 10.6699 3.35779 11.459 3.35779C11.7949 3.35779 11.9902 3.42029 12.5449 3.70935C13.5684 4.24841 13.7168 4.20935 14.2715 3.26404C14.6777 2.58435 15.0605 2.25623 15.6621 2.09998C16.2715 1.93591 17.0137 2.1781 17.5137 2.70935C17.7168 2.9281 17.7168 2.94373 17.748 4.21716C17.7715 5.44373 17.7793 5.52966 17.9902 5.94373C18.3965 6.77966 19.3418 7.42029 20.1777 7.42029C21.3574 7.4281 22.0527 8.6781 21.3652 9.57654C21.0918 9.9281 20.8574 10.0375 20.1309 10.1469C19.4121 10.2484 19.0059 10.4359 18.5918 10.8656C17.3574 12.139 17.8105 14.264 19.4668 14.9984C19.8652 15.1703 20.7168 15.2797 21.123 15.2015C21.6934 15.0922 21.9199 14.4906 21.5215 14.1C21.373 13.9437 21.2559 13.9047 20.9199 13.9047C20.3496 13.9047 19.9668 13.7797 19.6465 13.5062C19.1621 13.0765 19.0918 12.3578 19.4902 11.889C19.7246 11.6078 19.959 11.514 20.6465 11.4125C21.623 11.2719 22.334 10.764 22.7168 9.93591C22.8965 9.5531 22.9277 9.38904 22.9277 8.74841C22.9277 8.13904 22.8965 7.94373 22.748 7.64685C22.3184 6.76404 21.5527 6.2406 20.4902 6.09998C19.7871 6.00623 19.4355 5.8031 19.2246 5.35779C19.084 5.06873 19.0605 4.88123 19.0605 3.9281V2.82654L19.4199 2.4281C19.623 2.20154 19.8887 1.96716 20.0137 1.90466C20.5527 1.62341 21.2637 1.63904 21.8652 1.94373ZM16.873 23.9047C17.3574 24.6625 18.3496 25.3344 19.1465 25.4359C19.3652 25.4672 19.5293 25.5297 19.5293 25.5844C19.5293 25.6312 19.6387 25.889 19.7637 26.1469C20.0293 26.6859 20.6074 27.2562 21.1152 27.5062C21.4355 27.6625 21.459 27.7015 21.5449 28.1234C21.6934 28.8422 22.0762 29.5062 22.6855 30.1234C23.2012 30.639 23.3652 30.7406 25.0371 31.5844C27.0215 32.5922 27.6152 33.0062 28.2246 33.8265C28.9121 34.7406 29.3027 35.6547 29.459 36.7172C29.6152 37.8109 29.4043 38.225 28.6309 38.3187C28.0371 38.3969 27.6152 38.3031 27.3574 38.0453C27.1699 37.8656 27.123 37.725 27.0449 37.1469C26.9199 36.225 26.6152 35.5844 26.0293 35.0062C25.6387 34.6234 25.3262 34.4359 23.8965 33.7328C22.1699 32.8734 21.7402 32.6 21.0293 31.9203C19.9902 30.9281 19.2246 29.4047 19.0293 27.9281C18.9902 27.6312 18.998 27.6 19.2168 27.5219C19.4902 27.4203 19.6387 27.1 19.5684 26.7406C19.498 26.3656 19.1777 26.2172 18.584 26.2875C17.4746 26.4203 16.5215 25.6703 16.4199 24.5922C16.3965 24.3109 16.4199 24.014 16.4824 23.8187C16.5371 23.6547 16.5918 23.514 16.6074 23.514C16.6152 23.514 16.7324 23.6937 16.873 23.9047Z" fill="#0E82FD"/>
</svg>
