<svg width="40" height="40" viewBox="0 0 40 40" fill="none" xmlns="http://www.w3.org/2000/svg">
<path d="M8.72342 0.10014C6.35594 0.498627 4.55103 1.3503 3.03522 2.79579C1.59754 4.16314 0.74587 5.71803 0.237995 7.92142C0.0114041 8.93717 -0.0511037 11.3906 0.120793 12.7189C0.417704 14.9614 1.13654 17.2116 2.16792 19.1025C2.35544 19.4541 2.84769 20.298 3.25399 20.9777C5.26206 24.3063 5.91839 26.1424 6.30125 29.4475C6.7935 33.659 7.69986 37.1829 8.6531 38.5737C9.00471 39.0737 9.45008 39.4722 9.97358 39.7457C10.5361 40.0348 11.5597 40.0895 12.0363 39.8473C13.6303 39.0268 14.8101 35.878 15.8024 29.7601C15.9665 28.7053 16.1618 27.6504 16.2322 27.416C16.4978 26.4784 17.0526 25.783 17.6698 25.6189C17.8496 25.5721 18.0058 25.5408 18.0136 25.5564C18.0215 25.5721 18.1465 25.8533 18.2949 26.1893C18.4356 26.5253 18.8731 27.3379 19.256 27.9864C20.6468 30.3383 20.9906 31.315 21.264 33.7059C21.3812 34.6747 21.7641 36.6359 21.9751 37.3704C22.3657 38.6909 23.0143 39.6129 23.7409 39.8863C24.2253 40.0739 25.0536 40.0113 25.3974 39.7691C26.249 39.1597 26.9679 37.136 27.5461 33.7215C27.6945 32.8542 27.8742 31.9947 27.9446 31.8072C28.2884 30.9477 29.0697 30.9633 29.4369 31.8306C29.4994 31.9791 29.687 32.9167 29.8589 33.909C30.1948 35.8546 30.2886 36.2687 30.6558 37.4173C31.0621 38.6831 31.6169 39.6129 32.1248 39.8785C32.4217 40.0348 33.2968 40.027 33.6718 39.8707C34.2422 39.6363 34.836 38.894 35.1642 38.0033C35.5236 37.0344 36.0002 34.7919 36.1487 33.3152C36.344 31.4478 36.7503 30.3305 37.9927 28.1896C38.7818 26.8378 39.1803 26.0096 39.4538 25.1501C39.9226 23.6812 39.9773 23.2905 39.9773 21.6341C39.9695 20.2042 39.9539 20.0714 39.7585 19.4228C39.2741 17.868 38.524 16.8366 37.2035 15.9537C36.8754 15.7349 35.9768 15.313 35.5861 15.1958C35.4299 15.1411 35.422 15.1333 35.5314 14.7348C35.8674 13.469 35.9846 12.3907 35.9846 10.6952C35.9846 8.85904 35.9065 8.24178 35.4846 6.8666C34.3438 3.16302 31.359 0.717403 27.2023 0.0923271C26.1084 -0.0717545 24.0456 -0.00924683 22.9752 0.217342C21.2406 0.592388 19.7092 1.27998 18.1777 2.37386C18.0293 2.48325 17.9668 2.45981 17.4042 2.06132C16.0837 1.14714 14.6148 0.537693 12.8567 0.178276C12.0129 0.00637817 9.55946 -0.0326881 8.72342 0.10014ZM12.5598 1.5847C13.9584 1.85817 15.2867 2.38167 16.3416 3.06144C16.6228 3.24115 17.2714 3.75684 17.787 4.1944C20.7015 6.71033 23.2721 8.03863 25.1942 8.03863C25.5458 8.03863 25.6552 8.00737 25.8271 7.83548C26.2022 7.46043 26.0303 6.77284 25.538 6.67908C25.4442 6.65564 25.1708 6.62439 24.9286 6.60095C23.5925 6.46812 21.686 5.50706 19.8264 4.03032L19.1388 3.47556L19.3966 3.2646C19.8264 2.91299 21.2406 2.20978 22.0454 1.95975C23.5534 1.48312 25.077 1.31123 26.5381 1.4675C31.0778 1.95193 34.0078 4.78041 34.5469 9.21065C34.7188 10.6327 34.586 12.5626 34.211 14.1331L34.0391 14.852L33.0624 14.8754C31.5934 14.9145 30.2808 15.2973 29.1166 16.0474L28.6712 16.3287L28.429 16.1412C27.3273 15.2973 25.2255 14.7504 23.569 14.8676C20.553 15.0786 18.3262 16.8132 17.5761 19.5479C17.3495 20.3527 17.2948 22.3451 17.4667 23.3374C17.537 23.7281 17.5917 24.0875 17.5917 24.1266C17.5917 24.1656 17.4042 24.2594 17.1776 24.3219C16.6072 24.486 15.9665 24.9704 15.568 25.533C15.0445 26.2831 14.8257 27.0175 14.4585 29.1897C13.9194 32.4635 13.474 34.4325 12.9036 36.0499C12.5833 36.9406 12.0832 37.9173 11.7394 38.2924C11.5206 38.5424 11.4269 38.5893 11.169 38.5893C10.0673 38.5893 9.27818 37.2766 8.56715 34.2528C8.17648 32.6042 7.91864 31.104 7.6686 28.9865C7.27012 25.5799 6.56691 23.689 4.34788 20.0323C2.86332 17.5789 2.11323 15.7349 1.65223 13.3909C1.41002 12.1876 1.34751 9.85135 1.52722 8.80435C1.71474 7.70264 2.00384 6.77284 2.40233 6.00712C3.73062 3.42086 6.16842 1.85036 9.4657 1.44406C10.0126 1.38155 11.9426 1.4675 12.5598 1.5847ZM25.7568 16.485C26.6553 16.7194 27.593 17.2351 28.3743 17.9227C29.9057 19.2822 31.4372 20.1182 32.742 20.3058C33.3905 20.3995 33.7109 20.2823 33.8359 19.8917C34.0078 19.376 33.7187 19.0087 33.0702 18.9306C32.828 18.9072 32.367 18.7821 32.0466 18.6571C31.4528 18.4227 29.9057 17.446 29.9057 17.2976C29.9057 17.1648 31.0309 16.6413 31.695 16.4694C32.5154 16.2506 33.9531 16.2271 34.7423 16.4225C35.6565 16.6491 36.5237 17.1335 37.1566 17.7586C37.7739 18.368 38.1099 18.9384 38.3912 19.837C38.5474 20.3605 38.5709 20.5714 38.5631 21.7513C38.5631 22.978 38.5396 23.1499 38.3208 23.9937C38.0161 25.1345 37.6801 25.8768 36.7894 27.416C35.383 29.8304 35.0001 30.9555 34.7032 33.5105C34.5626 34.6747 34.2031 36.3937 33.9062 37.2454C33.625 38.058 33.2499 38.5893 32.9374 38.5893C32.4139 38.5893 31.6794 36.339 31.1481 33.0964C31.0309 32.4167 30.8746 31.6744 30.7965 31.44C30.0308 29.2053 27.4054 29.1506 26.585 31.354C26.5069 31.5728 26.3272 32.3932 26.1943 33.1746C25.7568 35.7921 25.3192 37.386 24.8192 38.2377C24.5691 38.6674 24.3582 38.6987 24.0144 38.3471C23.4674 37.7845 22.9674 35.9249 22.5923 33.0417C22.3189 30.9243 21.936 29.7835 20.8968 27.9786C19.5685 25.6893 19.3497 25.2048 19.0059 23.8218C18.7012 22.6107 18.6622 21.0246 18.9122 20.0636C19.3419 18.3837 20.4827 17.1413 22.0845 16.5944C23.2018 16.2115 24.577 16.1724 25.7568 16.485Z" fill="#0E82FD"/>
<path d="M8.37177 3.41305C7.73888 3.72559 7.94203 4.67883 8.63743 4.67883C9.02029 4.67883 9.14531 4.61633 9.27814 4.35067C9.6063 3.71778 8.99685 3.0927 8.37177 3.41305Z" fill="#0E82FD"/>
<path d="M5.88674 4.64763C5.35542 4.91329 4.40999 5.81184 3.95681 6.47598C2.77698 8.24182 2.47225 10.4452 3.05826 13.0002C3.16765 13.469 3.2536 13.6644 3.40987 13.7972C3.80054 14.1332 4.41781 13.9535 4.50376 13.4768C4.53501 13.344 4.48031 12.883 4.39437 12.4533C4.15996 11.2969 4.1209 10.6484 4.23028 9.78889C4.33186 8.97629 4.56626 8.21838 4.91006 7.60893C5.1679 7.14012 5.94925 6.30408 6.41024 5.99154C7.04313 5.5618 7.16815 5.29615 6.92593 4.83515C6.85561 4.70232 6.7931 4.60075 6.78529 4.60075C6.77747 4.60075 6.65246 4.56949 6.51963 4.53043C6.31648 4.46792 6.19928 4.49136 5.88674 4.64763Z" fill="#0E82FD"/>
<path d="M23.5528 17.4929C23.0293 17.9774 23.4747 18.8212 24.1857 18.6884C24.6701 18.5946 24.8733 17.8914 24.506 17.532C24.2638 17.282 23.795 17.2663 23.5528 17.4929Z" fill="#0E82FD"/>
<path d="M21.7178 18.5009C21.0849 18.8994 20.4911 19.7823 20.202 20.7356C19.866 21.8607 20.1317 24.1266 20.6552 24.5642C20.9365 24.7986 21.249 24.8142 21.5225 24.6032C21.8038 24.3766 21.8428 24.0954 21.6631 23.4234C21.2256 21.7826 21.46 20.6887 22.4757 19.712C23.0227 19.1963 23.0852 19.0088 22.8664 18.5947C22.6633 18.1962 22.2491 18.1649 21.7178 18.5009Z" fill="#0E82FD"/>
</svg>
